<svg width="234" height="311" viewBox="0 0 234 311" fill="none" xmlns="http://www.w3.org/2000/svg">
<rect x="117.85" y="97.2903" width="56.1714" height="31.5735" fill="#F7BE82"/>
<rect x="44.0559" y="120.787" width="7.34267" height="8.07694" fill="#AEB757"/>
<rect x="51.3988" y="120.787" width="7.34267" height="8.07694" fill="#DDDD7E"/>
<rect x="58.7416" y="112.709" width="7.34267" height="8.07694" fill="#D1E26C"/>
<rect x="66.0841" y="112.709" width="7.34267" height="8.07694" fill="#4B613E"/>
<rect x="117.85" y="34.5103" width="63.8812" height="13.9511" fill="#D8A15D"/>
<rect x="124.091" y="27.5347" width="50.2973" height="6.97554" fill="#D8A15D"/>
<rect x="130.7" y="20.5593" width="28.6364" height="6.97554" fill="#D8A15D"/>
<rect x="138.042" y="14.3181" width="14.6853" height="6.6084" fill="#D8A15D"/>
<rect x="159.336" y="20.9263" width="7.34267" height="6.6084" fill="#E6BC7D"/>
<rect x="166.679" y="20.9263" width="7.7098" height="6.6084" fill="#E8E1C5"/>
<rect x="167.046" y="14.3181" width="7.34267" height="6.6084" fill="#94492C"/>
<rect x="174.388" y="20.9263" width="7.34267" height="6.6084" fill="#94492C"/>
<rect x="174.388" y="27.5347" width="7.34267" height="6.6084" fill="#AB6538"/>
<rect x="181.731" y="34.1438" width="7.34267" height="6.6084" fill="#79362F"/>
<rect x="110.507" y="48.4614" width="7.34267" height="6.97554" fill="#50313B"/>
<rect x="110.507" y="41.4861" width="7.34267" height="6.97554" fill="#9D673C"/>
<rect x="103.165" y="41.4861" width="7.34267" height="6.97554" fill="#BA7438"/>
<rect x="95.822" y="34.5103" width="7.34267" height="6.97554" fill="#D89B55"/>
<rect x="78.1992" y="27.5347" width="6.97554" height="6.97554" fill="#5E3332"/>
<rect x="78.1992" y="20.9263" width="6.97554" height="6.97554" fill="#302232"/>
<rect x="85.175" y="13.9504" width="6.97554" height="6.97554" fill="#302232"/>
<rect x="91.7833" y="6.97534" width="6.97554" height="6.97554" fill="#302232"/>
<rect x="98.759" width="6.97554" height="6.97554" fill="#4D2D31"/>
<rect x="105.367" width="6.97554" height="6.97554" fill="#603330"/>
<rect x="95.822" y="13.9504" width="9.54547" height="20.5595" fill="#844735"/>
<rect x="95.822" y="41.4861" width="7.34267" height="6.97554" fill="#693E3C"/>
<rect x="88.4791" y="41.4861" width="7.34267" height="6.97554" fill="#935135"/>
<rect x="70.8567" y="34.5103" width="7.34267" height="13.9511" fill="#312331"/>
<rect x="85.175" y="20.9263" width="10.6469" height="20.5595" fill="#844735"/>
<rect x="78.1992" y="34.5103" width="10.2797" height="13.9511" fill="#844735"/>
<rect x="103.165" y="34.5103" width="14.6853" height="6.97554" fill="#8A4C36"/>
<rect x="86.6434" y="48.4614" width="7.34267" height="6.97554" fill="#382839"/>
<rect x="51.3988" y="48.4614" width="35.2448" height="6.97554" fill="#312633"/>
<rect x="93.986" y="48.4614" width="16.521" height="6.97554" fill="#3D2834"/>
<rect x="189.074" y="48.8284" width="7.34267" height="6.6084" fill="#492C34"/>
<rect x="117.85" y="48.4614" width="63.8812" height="6.97554" fill="#723E2F"/>
<rect x="196.416" y="48.8284" width="7.34267" height="6.6084" fill="#6D392B"/>
<rect x="203.759" y="48.8284" width="7.34267" height="6.6084" fill="#804834"/>
<rect x="211.102" y="55.4368" width="7.34267" height="6.6084" fill="#804834"/>
<rect x="218.444" y="62.0449" width="7.34267" height="6.6084" fill="#A75C31"/>
<rect x="211.102" y="62.0449" width="7.34267" height="6.6084" fill="#E7CA8D"/>
<rect x="211.102" y="68.6536" width="7.34267" height="6.6084" fill="#4A242F"/>
<rect x="218.444" y="68.6536" width="7.34267" height="6.6084" fill="#402B3B"/>
<rect x="203.759" y="75.2625" width="7.34267" height="6.6084" fill="#302438"/>
<rect x="167.413" y="81.8706" width="27.535" height="6.6084" fill="#302438"/>
<rect x="138.042" y="81.8706" width="14.3182" height="24.9651" fill="#302438"/>
<rect x="105.367" y="81.5037" width="12.4825" height="23.4965" fill="#302438"/>
<rect x="51.0317" y="75.2625" width="152.728" height="6.6084" fill="#2C2334"/>
<rect x="196.416" y="62.0449" width="14.6853" height="6.6084" fill="#E7BE78"/>
<rect x="181.364" y="68.6536" width="15.0525" height="6.6084" fill="#D49A50"/>
<rect x="196.416" y="68.6536" width="14.6853" height="6.6084" fill="#BF7F3E"/>
<rect x="225.787" y="62.0449" width="7.34267" height="6.6084" fill="#977568"/>
<rect x="189.074" y="55.4368" width="7.34267" height="6.6084" fill="#EBD9B1"/>
<rect x="189.074" y="62.0449" width="7.34267" height="6.6084" fill="#ECCC8C"/>
<rect x="181.364" y="62.0449" width="7.7098" height="6.6084" fill="#ECD196"/>
<rect x="152.728" y="62.0449" width="28.6364" height="6.6084" fill="#EDD9A9"/>
<rect x="80.0349" y="55.4368" width="101.696" height="6.6084" fill="#312132"/>
<rect x="181.731" y="55.4368" width="7.34267" height="6.6084" fill="#DBBC8C"/>
<rect x="72.6924" y="55.4368" width="7.34267" height="6.6084" fill="#3D2C36"/>
<rect x="72.6924" y="55.4368" width="7.34267" height="6.6084" fill="#3D2C36"/>
<rect x="88.8464" y="62.0449" width="7.34267" height="6.6084" fill="#AC6C40"/>
<rect x="98.0247" y="88.4795" width="7.34267" height="8.07694" fill="#432A37"/>
<rect x="98.0247" y="96.5557" width="7.34267" height="8.07694" fill="#D16B4B"/>
<rect x="90.6819" y="88.4795" width="7.34267" height="8.07694" fill="#F2B374"/>
<rect x="90.6819" y="96.5557" width="7.34267" height="8.07694" fill="#B34941"/>
<rect x="83.3393" y="104.633" width="7.34267" height="8.07694" fill="#B34941"/>
<rect x="58.7416" y="104.633" width="24.5979" height="8.07694" fill="#2E2737"/>
<rect x="83.3393" y="112.343" width="30.4721" height="29.3707" fill="#2E2737"/>
<rect x="111.608" y="119.685" width="7.34267" height="8.07694" fill="#B34941"/>
<rect x="104.266" y="127.395" width="7.34267" height="8.07694" fill="#AC9B93"/>
<rect x="118.951" y="119.685" width="7.34267" height="8.07694" fill="#E6744B"/>
<rect x="111.608" y="127.395" width="7.34267" height="8.07694" fill="#AC9B93"/>
<rect x="130.7" y="135.472" width="29.7378" height="8.07694" fill="#262034"/>
<rect x="133.637" y="119.685" width="7.34267" height="8.07694" fill="#EE915A"/>
<rect x="166.679" y="119.685" width="7.34267" height="8.07694" fill="#D45F46"/>
<rect x="174.021" y="119.685" width="7.34267" height="8.07694" fill="#C25045"/>
<rect x="174.021" y="106.101" width="7.34267" height="13.5839" fill="#E7875F"/>
<rect x="166.679" y="127.395" width="7.34267" height="8.07694" fill="#B77864"/>
<rect x="160.07" y="140.612" width="7.34267" height="8.07694" fill="#262034"/>
<rect x="160.07" y="148.689" width="7.34267" height="8.07694" fill="#4C3035"/>
<rect x="167.413" y="152.361" width="7.34267" height="8.07694" fill="#382D3C"/>
<rect x="174.756" y="160.07" width="7.34267" height="22.3951" fill="#B7AB9F"/>
<rect x="167.413" y="160.07" width="7.34267" height="22.3951" fill="#5A2C2E"/>
<rect x="152.728" y="142.448" width="7.34267" height="11.7483" fill="#BDB6AB"/>
<rect x="130.7" y="154.196" width="7.34267" height="6.6084" fill="#BDB6AB"/>
<rect x="124.091" y="147.587" width="6.97554" height="6.6084" fill="#BDB6AB"/>
<rect x="126.294" y="119.685" width="7.34267" height="8.07694" fill="#DE6C50"/>
<rect x="105" y="112.709" width="18.7238" height="6.97554" fill="#EE8750"/>
<rect x="83.3393" y="88.4795" width="7.34267" height="8.07694" fill="#EE8C54"/>
<rect x="83.3393" y="96.5557" width="7.34267" height="8.07694" fill="#F2A86A"/>
<rect x="90.6819" y="104.633" width="7.34267" height="8.07694" fill="#F2A86A"/>
<rect x="98.0247" y="104.633" width="26.0665" height="8.07694" fill="#D16B4B"/>
<rect x="117.85" y="81.8706" width="20.1923" height="15.4196" fill="#D16B4B"/>
<rect x="152.361" y="81.8706" width="15.0525" height="15.4196" fill="#D16B4B"/>
<rect x="75.9967" y="88.4795" width="7.34267" height="8.07694" fill="#362131"/>
<rect x="75.9967" y="96.5557" width="7.34267" height="8.07694" fill="#A64737"/>
<rect x="50.2974" y="104.633" width="8.44407" height="8.07694" fill="#607142"/>
<rect x="44.0559" y="112.709" width="7.34267" height="8.07694" fill="#D6E182"/>
<rect x="51.3988" y="112.709" width="7.34267" height="8.07694" fill="#37423A"/>
<rect x="58.7416" y="120.787" width="7.34267" height="8.07694" fill="#37423A"/>
<rect x="66.0841" y="120.787" width="7.34267" height="8.07694" fill="#D1CD68"/>
<rect x="66.0841" y="146.854" width="7.34267" height="8.07694" fill="#567041"/>
<rect x="58.7416" y="128.864" width="7.34267" height="26.0665" fill="#35303F"/>
<rect x="66.0841" y="128.864" width="7.34267" height="17.9895" fill="#B9BD41"/>
<rect x="73.4267" y="129.23" width="9.91261" height="17.9895" fill="#555C3C"/>
<rect x="73.4267" y="112.343" width="9.91261" height="16.8881" fill="#3A3B36"/>
<rect x="51.3988" y="128.864" width="7.34267" height="17.9895" fill="#C9CC57"/>
<rect x="22.0282" y="104.633" width="7.34267" height="8.07694" fill="#717751"/>
<rect x="22.0282" y="112.709" width="7.34267" height="8.07694" fill="#626A35"/>
<rect x="22.0282" y="120.787" width="7.34267" height="8.07694" fill="#75893A"/>
<rect x="29.3708" y="120.787" width="7.34267" height="8.07694" fill="#C3C555"/>
<rect x="36.7134" y="128.864" width="7.34267" height="17.9895" fill="#97B03F"/>
<rect x="14.6854" y="128.864" width="7.34267" height="8.07694" fill="#5E6C4A"/>
<rect x="14.6854" y="146.854" width="7.34267" height="6.97554" fill="#65773F"/>
<rect x="7.34257" y="128.864" width="7.34267" height="24.9651" fill="#64773A"/>
<rect x="14.6854" y="112.709" width="7.34267" height="8.07694" fill="#2B2338"/>
<rect x="14.6854" y="120.787" width="7.34267" height="8.07694" fill="#949D3A"/>
<rect x="7.34257" y="120.787" width="7.34267" height="8.07694" fill="#2B2338"/>
<rect x="22.0282" y="128.864" width="7.34267" height="8.07694" fill="#2B2338"/>
<rect x="29.3708" y="128.864" width="7.34267" height="8.07694" fill="#2B2338"/>
<rect x="36.7134" y="120.787" width="7.34267" height="8.07694" fill="#2B2338"/>
<rect x="44.0559" y="128.864" width="7.34267" height="8.07694" fill="#42463B"/>
<rect x="7.34257" y="153.829" width="7.34267" height="8.07694" fill="#2B2338"/>
<rect x="22.0282" y="169.982" width="7.34267" height="8.07694" fill="#2B2338"/>
<rect x="70.8567" y="169.982" width="7.34267" height="8.07694" fill="#2B2338"/>
<rect x="63.5141" y="178.059" width="7.34267" height="8.07694" fill="#2B2338"/>
<rect x="57.2726" y="186.136" width="7.34267" height="8.07694" fill="#2B2338"/>
<rect x="29.3708" y="169.982" width="41.4861" height="8.07694" fill="#4F5241"/>
<rect x="56.1715" y="178.059" width="7.34267" height="8.07694" fill="#58683C"/>
<rect x="29.3708" y="178.059" width="27.9021" height="8.07694" fill="#827B44"/>
<rect x="22.0282" y="178.059" width="7.34267" height="8.07694" fill="#2B2338"/>
<rect x="22.0282" y="202.291" width="7.34267" height="8.07694" fill="#2B2338"/>
<rect x="14.6854" y="218.444" width="7.34267" height="8.07694" fill="#2B2338"/>
<rect x="22.0282" y="218.444" width="7.34267" height="8.07694" fill="#9D533C"/>
<rect x="29.3708" y="218.444" width="7.34267" height="8.07694" fill="#B55E40"/>
<rect x="36.7134" y="218.444" width="7.34267" height="8.07694" fill="#B55E40"/>
<rect x="44.0559" y="218.444" width="7.34267" height="8.07694" fill="#9C573C"/>
<rect x="51.3988" y="218.444" width="7.34267" height="8.07694" fill="#E3B369"/>
<rect x="29.3708" y="226.521" width="7.34267" height="8.07694" fill="#54663E"/>
<rect x="36.7134" y="226.521" width="7.34267" height="8.07694" fill="#54663E"/>
<rect x="44.0559" y="226.521" width="7.34267" height="8.07694" fill="#54663E"/>
<rect x="51.3988" y="226.521" width="7.34267" height="8.07694" fill="#54663E"/>
<rect x="58.7416" y="226.521" width="7.34267" height="8.07694" fill="#54663E"/>
<rect x="58.7416" y="218.444" width="7.34267" height="8.07694" fill="#54663E"/>
<rect x="58.7416" y="210.367" width="7.34267" height="8.07694" fill="#54663E"/>
<rect x="84.8077" y="226.521" width="7.34267" height="8.07694" fill="#2B2338"/>
<rect x="73.4267" y="226.521" width="11.3811" height="8.07694" fill="#2E2739"/>
<rect x="73.4267" y="218.444" width="11.3811" height="8.07694" fill="#2E2739"/>
<rect x="66.0841" y="202.291" width="6.6084" height="16.1539" fill="#2E2739"/>
<rect x="71.591" y="213.672" width="6.6084" height="16.1539" fill="#2E2739"/>
<rect x="62.0457" y="197.518" width="10.6469" height="8.07694" fill="#2E2739"/>
<rect x="66.0841" y="218.444" width="7.34267" height="8.07694" fill="#4B4E3A"/>
<rect x="22.0282" y="226.521" width="7.34267" height="8.07694" fill="#2B2338"/>
<rect x="29.3708" y="234.598" width="62.7798" height="8.07694" fill="#2B2338"/>
<rect x="22.0282" y="210.367" width="7.34267" height="8.07694" fill="#A95637"/>
<rect x="29.3708" y="210.367" width="7.34267" height="8.07694" fill="#A95637"/>
<rect x="36.7134" y="210.367" width="7.34267" height="8.07694" fill="#693234"/>
<rect x="44.0559" y="210.367" width="7.34267" height="8.07694" fill="#9C5C3F"/>
<rect x="51.3988" y="210.367" width="7.34267" height="8.07694" fill="#E6AB5B"/>
<rect x="29.3708" y="202.291" width="7.34267" height="8.07694" fill="#DA9D52"/>
<rect x="36.7134" y="202.291" width="7.34267" height="8.07694" fill="#4C2930"/>
<rect x="44.0559" y="202.291" width="7.34267" height="8.07694" fill="#582A2E"/>
<rect x="22.0282" y="186.136" width="7.34267" height="8.07694" fill="#E0A75D"/>
<rect x="22.0282" y="194.213" width="7.34267" height="8.07694" fill="#D38F46"/>
<rect x="29.3708" y="194.213" width="7.34267" height="8.07694" fill="#D6994C"/>
<rect x="36.7134" y="194.213" width="7.34267" height="8.07694" fill="#D49451"/>
<rect x="44.0559" y="194.213" width="7.34267" height="8.07694" fill="#D29E55"/>
<rect x="72.6924" y="197.518" width="8.81121" height="8.07694" fill="#8E4B44"/>
<rect x="72.6924" y="205.595" width="8.81121" height="8.07694" fill="#9D4B3D"/>
<rect x="81.5036" y="197.518" width="8.44407" height="8.07694" fill="#B65A47"/>
<rect x="81.5036" y="205.595" width="8.44407" height="8.07694" fill="#E57647"/>
<rect x="89.9475" y="197.518" width="8.81121" height="8.07694" fill="#C46958"/>
<rect x="89.9475" y="205.595" width="8.81121" height="8.07694" fill="#FEC589"/>
<rect x="98.759" y="205.595" width="8.81121" height="8.07694" fill="#FEC589"/>
<rect x="107.937" y="213.672" width="8.81121" height="8.07694" fill="#F3A468"/>
<rect x="116.749" y="213.672" width="21.2937" height="8.07694" fill="#352833"/>
<rect x="122.99" y="221.748" width="15.0525" height="13.2168" fill="#CE9C54"/>
<rect x="152.361" y="234.598" width="14.3182" height="27.535" fill="#CE9C54"/>
<rect x="138.042" y="229.092" width="28.6364" height="5.87414" fill="#CE9C54"/>
<rect x="114.179" y="229.825" width="16.8881" height="12.1154" fill="#CE9C54"/>
<rect x="105.367" y="237.902" width="19.4581" height="11.014" fill="#CE9C54"/>
<rect x="98.0247" y="245.979" width="19.8252" height="9.17834" fill="#CE9C54"/>
<rect x="98.0247" y="255.157" width="13.2168" height="6.97554" fill="#CE9C54"/>
<rect x="98.0247" y="262.133" width="13.5839" height="6.97554" fill="#AA683A"/>
<rect x="111.608" y="255.157" width="6.6084" height="6.97554" fill="#875431"/>
<rect x="152.361" y="262.133" width="8.07694" height="6.24127" fill="#944E2F"/>
<rect x="158.969" y="262.133" width="7.7098" height="6.24127" fill="#B27740"/>
<rect x="124.825" y="241.941" width="20.9266" height="6.97554" fill="#332736"/>
<rect x="111.608" y="262.133" width="6.97554" height="6.97554" fill="#312836"/>
<rect x="77.8325" y="262.133" width="6.97554" height="6.97554" fill="#312836"/>
<rect x="105.367" y="276.084" width="6.97554" height="6.97554" fill="#312836"/>
<rect x="92.1505" y="276.084" width="13.2168" height="6.97554" fill="#8E4F39"/>
<rect x="78.1992" y="276.084" width="13.9511" height="6.97554" fill="#6B3A34"/>
<rect x="78.1992" y="283.06" width="27.1679" height="6.97554" fill="#322432"/>
<rect x="78.1992" y="290.035" width="13.9511" height="6.97554" fill="#322432"/>
<rect x="70.8567" y="295.175" width="13.9511" height="8.81121" fill="#322432"/>
<rect x="105.367" y="290.035" width="6.97554" height="6.97554" fill="#322432"/>
<rect x="70.8567" y="303.987" width="41.4861" height="6.97554" fill="#322432"/>
<rect x="112.343" y="297.011" width="6.97554" height="13.9511" fill="#322432"/>
<rect x="92.1505" y="290.035" width="13.2168" height="6.97554" fill="#8E4F39"/>
<rect x="84.8077" y="297.011" width="27.535" height="6.97554" fill="#8E4F39"/>
<rect x="77.8325" y="269.109" width="40.7518" height="6.97554" fill="#312836"/>
<rect x="118.217" y="248.916" width="6.6084" height="6.97554" fill="#754439"/>
<rect x="145.752" y="241.573" width="6.6084" height="26.8007" fill="#754439"/>
<rect x="92.1505" y="245.613" width="6.6084" height="23.4965" fill="#8C5137"/>
<rect x="84.8077" y="242.675" width="7.34267" height="26.8007" fill="#302735"/>
<rect x="98.759" y="197.518" width="8.81121" height="8.07694" fill="#2E2339"/>
<rect x="107.57" y="189.441" width="11.7483" height="8.07694" fill="#2E2339"/>
<rect x="119.319" y="164.475" width="38.1819" height="33.4092" fill="#EAEBDB"/>
<rect x="107.57" y="197.151" width="52.5001" height="8.07694" fill="#B4A699"/>
<rect x="64.6157" y="186.136" width="42.9546" height="11.3811" fill="#B19F91"/>
<rect x="70.8567" y="178.059" width="34.5106" height="11.3811" fill="#B5A99B"/>
<rect x="78.1992" y="154.196" width="27.1679" height="23.8637" fill="#CBBCAD"/>
<rect x="84.8077" y="147.22" width="6.97554" height="6.97554" fill="#CBBCAD"/>
<rect x="91.7833" y="147.22" width="6.97554" height="6.97554" fill="#E5E3D2"/>
<rect x="91.7833" y="139.51" width="6.97554" height="8.07694" fill="#2D253A"/>
<rect x="98.759" y="146.854" width="6.97554" height="7.34267" fill="#2D253A"/>
<rect x="118.217" y="146.854" width="6.97554" height="7.34267" fill="#362433"/>
<rect x="118.217" y="154.196" width="6.97554" height="6.6084" fill="#84412C"/>
<rect x="118.217" y="160.438" width="6.97554" height="22.028" fill="#8A4933"/>
<rect x="112.343" y="153.462" width="6.97554" height="7.34267" fill="#BE6E43"/>
<rect x="112.343" y="147.587" width="6.97554" height="5.87414" fill="#BE6E43"/>
<rect x="105.367" y="146.854" width="6.97554" height="7.34267" fill="#BE6E43"/>
<rect x="98.759" y="139.51" width="12.8497" height="7.7098" fill="#BE6E43"/>
<rect x="90.6819" y="131.801" width="8.07694" height="7.7098" fill="#B34941"/>
<rect x="105.367" y="182.465" width="6.97554" height="7.34267" fill="#94432C"/>
<rect x="112.343" y="182.465" width="6.97554" height="7.34267" fill="#743C31"/>
<rect x="112.343" y="160.804" width="6.97554" height="21.6609" fill="#AE5A32"/>
<rect x="105.367" y="153.829" width="6.97554" height="28.6364" fill="#3D2B38"/>
<rect x="84.8077" y="139.51" width="6.97554" height="8.07694" fill="#2D253A"/>
<rect x="78.1992" y="139.51" width="6.97554" height="7.34267" fill="#2D253A"/>
<rect x="78.1992" y="146.854" width="6.97554" height="7.34267" fill="#2D253A"/>
<rect x="73.4267" y="146.854" width="6.97554" height="7.34267" fill="#2D253A"/>
<rect x="51.3988" y="154.196" width="26.8007" height="7.7098" fill="#2D253A"/>
<rect x="71.224" y="178.059" width="27.1679" height="8.07694" fill="#E9ECDB"/>
<rect x="107.57" y="205.595" width="30.4721" height="8.07694" fill="#352833"/>
<rect x="105.367" y="221.748" width="8.81121" height="8.07694" fill="#994534"/>
<rect x="114.179" y="221.748" width="8.81121" height="8.07694" fill="#774033"/>
<rect x="105.367" y="229.825" width="8.81121" height="8.07694" fill="#58333B"/>
<rect x="92.1505" y="229.825" width="13.2168" height="8.07694" fill="#BC5944"/>
<rect x="92.1505" y="237.902" width="13.2168" height="8.07694" fill="#724237"/>
<rect x="99.1261" y="213.672" width="8.81121" height="8.07694" fill="#FEC589"/>
<rect x="90.3148" y="213.672" width="8.81121" height="8.07694" fill="#EB8054"/>
<rect x="90.3148" y="221.748" width="15.0525" height="8.07694" fill="#EB8054"/>
<rect x="78.1992" y="213.672" width="12.1154" height="8.07694" fill="#B94E40"/>
<rect x="78.1992" y="221.748" width="12.1154" height="8.07694" fill="#B94E40"/>
<rect x="29.3708" y="186.136" width="7.34267" height="8.07694" fill="#E0A75D"/>
<rect x="36.7134" y="186.136" width="7.34267" height="8.07694" fill="#E0A75D"/>
<rect x="44.0559" y="186.136" width="7.34267" height="8.07694" fill="#E0A75D"/>
<rect x="51.3988" y="186.136" width="5.87414" height="8.07694" fill="#C3764E"/>
<rect x="51.3988" y="194.213" width="7.34267" height="8.07694" fill="#713A31"/>
<rect x="51.3988" y="202.291" width="7.34267" height="8.07694" fill="#6D3A32"/>
<rect x="14.6854" y="186.136" width="7.34267" height="32.3078" fill="#572D32"/>
<rect x="14.6854" y="161.906" width="63.5141" height="8.07694" fill="#2B2338"/>
<rect x="22.0282" y="146.486" width="7.34267" height="8.07694" fill="#2B2338"/>
<rect x="36.7134" y="146.854" width="7.34267" height="8.07694" fill="#2B2338"/>
<rect x="44.0559" y="136.574" width="7.34267" height="10.2797" fill="#2B2338"/>
<rect x="44.0559" y="146.854" width="7.34267" height="8.07694" fill="#5E7A3F"/>
<rect x="51.3988" y="146.854" width="7.34267" height="8.07694" fill="#5E7A3F"/>
<rect x="29.3708" y="146.854" width="7.34267" height="8.07694" fill="#ACB34D"/>
<rect x="14.6854" y="153.829" width="36.7134" height="8.07694" fill="#5E7A3F"/>
<rect x="29.3708" y="136.941" width="7.34267" height="9.91261" fill="#2B2338"/>
<rect x="22.0282" y="136.941" width="7.34267" height="9.91261" fill="#8FAA3A"/>
<rect x="14.6854" y="136.941" width="7.34267" height="9.91261" fill="#2B2338"/>
<rect x="3.8147e-06" y="128.864" width="7.34267" height="24.9651" fill="#2B2338"/>
<rect x="29.3708" y="112.709" width="14.6853" height="8.07694" fill="#C1CE58"/>
<rect x="29.3708" y="104.633" width="20.9266" height="8.07694" fill="#353931"/>
<rect x="71.224" y="81.8706" width="13.2168" height="6.6084" fill="#2F2536"/>
<rect x="84.4407" y="81.8706" width="20.9266" height="6.6084" fill="#312836"/>
<rect x="65.3498" y="55.4368" width="7.34267" height="6.6084" fill="#79463A"/>
<rect x="58.0072" y="55.4368" width="7.34267" height="6.6084" fill="#924F38"/>
<rect x="51.0317" y="55.4368" width="7.34267" height="6.6084" fill="#7C4538"/>
<rect x="43.6889" y="55.4368" width="7.34267" height="6.6084" fill="#4A2E33"/>
<rect x="36.3463" y="55.4368" width="7.34267" height="6.6084" fill="#5C3237"/>
<rect x="36.3463" y="62.0449" width="7.34267" height="6.6084" fill="#955441"/>
<rect x="43.6889" y="62.0449" width="7.34267" height="6.6084" fill="#AF693D"/>
<rect x="51.0317" y="62.0449" width="21.6609" height="6.6084" fill="#D08E49"/>
<rect x="72.6924" y="62.0449" width="16.1539" height="6.6084" fill="#B97742"/>
<rect x="29.0035" y="62.0449" width="7.34267" height="6.6084" fill="#372532"/>
<rect x="36.3463" y="68.6536" width="7.34267" height="6.6084" fill="#31273C"/>
<rect x="43.6889" y="75.2625" width="7.34267" height="6.6084" fill="#413544"/>
<rect x="43.6889" y="68.6536" width="7.34267" height="6.6084" fill="#3A2737"/>
<rect x="51.0317" y="68.6536" width="21.6609" height="6.6084" fill="#96583F"/>
<rect x="72.6924" y="68.6536" width="23.4965" height="6.6084" fill="#BA7340"/>
<rect x="96.189" y="68.6536" width="21.6609" height="6.6084" fill="#BE7F42"/>
<rect x="117.85" y="68.6536" width="21.6609" height="6.6084" fill="#C78849"/>
<rect x="139.511" y="68.6536" width="41.8532" height="6.6084" fill="#DBA558"/>
<rect x="130.7" y="62.0449" width="22.3951" height="6.6084" fill="#EAC486"/>
<rect x="108.304" y="62.0449" width="22.3951" height="6.6084" fill="#E1AF67"/>
<rect x="96.189" y="62.0449" width="12.1154" height="6.6084" fill="#E6BB75"/>
<rect x="218.444" y="55.4368" width="7.34267" height="6.6084" fill="#D09F62"/>
<rect x="196.416" y="55.4368" width="14.6853" height="6.6084" fill="#E6BB78"/>
<rect x="181.731" y="40.752" width="7.34267" height="14.6853" fill="#312132"/>
<rect x="159.703" y="6.97534" width="7.34267" height="7.34267" fill="#94492C"/>
<rect x="152.361" width="7.34267" height="6.97554" fill="#94492C"/>
<rect x="145.385" width="7.34267" height="6.97554" fill="#B26C3D"/>
<rect x="152.728" y="14.3181" width="14.3182" height="6.6084" fill="#E8E1C5"/>
<rect x="145.385" y="6.97534" width="14.3182" height="7.34267" fill="#E8E1C5"/>
<rect x="92.1505" y="13.9504" width="6.6084" height="6.97554" fill="#934E33"/>
<rect x="98.759" y="6.97534" width="6.6084" height="6.97554" fill="#934E33"/>
<rect x="105.367" y="13.9504" width="6.6084" height="6.97554" fill="#884C32"/>
<rect x="105.367" y="6.97534" width="6.6084" height="6.97554" fill="#C28347"/>
<rect x="111.976" y="6.97534" width="6.6084" height="6.97554" fill="#AB6A3B"/>
<rect x="111.976" y="13.9504" width="6.6084" height="6.97554" fill="#AB6A3B"/>
<rect x="117.483" y="27.5347" width="6.6084" height="6.97554" fill="#8B5139"/>
<rect x="124.091" y="20.5593" width="6.6084" height="6.97554" fill="#8B5139"/>
<rect x="130.7" y="14.3181" width="7.34267" height="6.24127" fill="#8B5139"/>
<rect x="130.7" y="6.24121" width="7.34267" height="8.07694" fill="#904E30"/>
<rect x="124.091" y="6.24121" width="6.6084" height="14.3182" fill="#904E30"/>
<rect x="117.85" y="6.24121" width="6.6084" height="21.2937" fill="#904E30"/>
<rect x="138.042" y="6.24121" width="7.34267" height="8.07694" fill="#8B5139"/>
<rect x="105.367" y="20.9263" width="12.4825" height="13.5839" fill="#914F31"/>
<rect x="111.976" width="6.97554" height="6.97554" fill="#723E2F"/>
<rect x="118.951" width="6.97554" height="6.97554" fill="#944F34"/>
<rect x="125.927" width="19.4581" height="6.97554" fill="#CF934F"/>
<rect x="167.413" y="88.4795" width="13.2168" height="17.6224" fill="#302438"/>
<rect x="57.2726" y="194.213" width="7.34267" height="8.07694" fill="#2B2339"/>
<rect x="58.7416" y="202.291" width="7.34267" height="8.07694" fill="#54663E"/>
<rect x="66.0841" y="226.521" width="7.34267" height="8.07694" fill="#54663E"/>
<rect x="118.584" y="127.395" width="15.4196" height="8.07694" fill="#2C2332"/>
<rect x="133.637" y="127.395" width="7.34267" height="8.07694" fill="#3D2B38"/>
<rect x="140.979" y="127.395" width="25.6993" height="8.07694" fill="#C04F3A"/>
<rect x="118.217" y="140.612" width="5.87414" height="6.97554" fill="#CFC7B5"/>
<rect x="111.608" y="135.472" width="12.8497" height="5.507" fill="#C0B3A0"/>
<rect x="124.091" y="135.472" width="6.97554" height="5.507" fill="#A0544E"/>
<rect x="124.091" y="140.979" width="6.97554" height="6.6084" fill="#F1F3E9"/>
<rect x="131.067" y="147.22" width="6.97554" height="6.97554" fill="#F1F3E9"/>
<rect x="131.067" y="142.814" width="6.97554" height="6.97554" fill="#D3A582"/>
<rect x="138.042" y="147.22" width="7.34267" height="6.97554" fill="#B6533E"/>
<rect x="138.042" y="142.814" width="14.6853" height="6.97554" fill="#BA5541"/>
<rect x="145.385" y="147.22" width="7.34267" height="6.97554" fill="#F1F3E9"/>
<rect x="145.385" y="154.196" width="7.34267" height="6.97554" fill="#A7948A"/>
<rect x="145.385" y="167.78" width="7.34267" height="7.34267" fill="#EAEBDB"/>
<rect x="152.728" y="167.78" width="7.34267" height="15.4196" fill="#EAEBDB"/>
<rect x="152.728" y="154.196" width="7.34267" height="6.97554" fill="#E3E4D4"/>
<rect x="138.042" y="154.196" width="7.34267" height="6.97554" fill="#EAEBDB"/>
<rect x="138.042" y="160.804" width="7.34267" height="6.97554" fill="#D8D0BC"/>
<rect x="130.7" y="168.147" width="7.34267" height="6.97554" fill="#42282F"/>
<rect x="119.319" y="182.465" width="11.3811" height="7.34267" fill="#B9AAA1"/>
<rect x="138.042" y="175.123" width="7.34267" height="8.07694" fill="#42282F"/>
<rect x="145.385" y="183.199" width="7.34267" height="6.97554" fill="#42282F"/>
<rect x="152.728" y="190.175" width="7.34267" height="6.97554" fill="#362632"/>
<rect x="138.042" y="205.228" width="22.028" height="6.97554" fill="#E9E8D1"/>
<rect x="138.042" y="212.203" width="22.028" height="8.81121" fill="#997A69"/>
<rect x="160.07" y="197.151" width="13.5839" height="23.8637" fill="#362632"/>
<rect x="160.07" y="156.766" width="7.34267" height="33.7763" fill="#BBA996"/>
<rect x="130.7" y="160.804" width="7.34267" height="7.34267" fill="#5D3530"/>
<rect x="138.042" y="167.78" width="7.34267" height="7.34267" fill="#5D3530"/>
<rect x="145.385" y="175.123" width="7.34267" height="8.07694" fill="#502B2F"/>
<rect x="152.728" y="183.199" width="7.34267" height="6.97554" fill="#62362E"/>
<rect x="167.413" y="182.465" width="7.34267" height="7.7098" fill="#A29189"/>
<rect x="167.413" y="190.175" width="7.34267" height="6.97554" fill="#7B6369"/>
<rect x="174.756" y="190.175" width="7.34267" height="6.97554" fill="#7B6369"/>
<rect x="173.654" y="197.151" width="8.07694" height="6.97554" fill="#B35346"/>
<rect x="173.654" y="204.126" width="8.07694" height="7.7098" fill="#D56446"/>
<rect x="173.654" y="211.836" width="8.07694" height="7.7098" fill="#D56446"/>
<rect x="173.654" y="219.545" width="8.07694" height="7.7098" fill="#D56446"/>
<rect x="173.654" y="227.256" width="8.07694" height="7.7098" fill="#C35445"/>
<rect x="182.098" y="190.175" width="7.34267" height="6.97554" fill="#A99890"/>
<rect x="181.731" y="197.151" width="7.7098" height="6.97554" fill="#B35346"/>
<rect x="181.731" y="204.126" width="7.7098" height="7.7098" fill="#F1BE7F"/>
<rect x="181.731" y="211.836" width="7.7098" height="7.7098" fill="#F1BE7F"/>
<rect x="181.731" y="219.545" width="7.7098" height="7.7098" fill="#F1BE7F"/>
<rect x="181.731" y="227.256" width="7.7098" height="7.7098" fill="#D26646"/>
<rect x="189.441" y="197.151" width="7.7098" height="6.97554" fill="#DC9377"/>
<rect x="181.731" y="234.965" width="7.7098" height="6.97554" fill="#502A37"/>
<rect x="189.441" y="234.965" width="7.7098" height="6.97554" fill="#AB6350"/>
<rect x="181.731" y="241.941" width="7.7098" height="6.97554" fill="#AB6350"/>
<rect x="173.654" y="234.965" width="8.07694" height="6.97554" fill="#2D2636"/>
<rect x="166.679" y="274.983" width="8.07694" height="6.97554" transform="rotate(90 166.679 274.983)" fill="#2D2636"/>
<rect x="166.679" y="282.326" width="6.6084" height="13.5839" transform="rotate(90 166.679 282.326)" fill="#2D2636"/>
<rect x="187.972" y="303.619" width="6.60841" height="34.8777" transform="rotate(90 187.972 303.619)" fill="#2D2636"/>
<rect x="174.021" y="288.934" width="7.34267" height="6.97554" transform="rotate(90 174.021 288.934)" fill="#2D2636"/>
<rect x="174.021" y="296.277" width="7.34267" height="6.97554" transform="rotate(90 174.021 296.277)" fill="#4F2F31"/>
<rect x="167.046" y="288.934" width="7.34267" height="6.97554" transform="rotate(90 167.046 288.934)" fill="#85493D"/>
<rect x="167.046" y="296.277" width="7.34267" height="6.97554" transform="rotate(90 167.046 296.277)" fill="#4F2F31"/>
<rect x="160.07" y="288.934" width="7.34267" height="6.97554" transform="rotate(90 160.07 288.934)" fill="#40262D"/>
<rect x="160.07" y="296.277" width="7.34267" height="6.97554" transform="rotate(90 160.07 296.277)" fill="#4F2F31"/>
<rect x="181.364" y="296.277" width="7.34267" height="7.34267" transform="rotate(90 181.364 296.277)" fill="#2D2636"/>
<rect x="153.095" y="282.326" width="27.9021" height="15.0525" transform="rotate(90 153.095 282.326)" fill="#2D2636"/>
<rect x="138.042" y="268.375" width="28.6364" height="6.97554" fill="#2D2636"/>
<rect x="138.409" y="275.35" width="21.2937" height="6.97554" fill="#633E41"/>
<rect x="166.679" y="221.014" width="6.97554" height="47.3602" fill="#2D2636"/>
<rect x="189.441" y="204.126" width="7.7098" height="7.7098" fill="#F1BE7F"/>
<rect x="189.441" y="211.836" width="7.7098" height="7.7098" fill="#F1BE7F"/>
<rect x="189.441" y="219.545" width="7.7098" height="7.7098" fill="#F1BE7F"/>
<rect x="189.441" y="227.256" width="7.7098" height="7.7098" fill="#BB5A46"/>
<rect x="197.151" y="204.126" width="7.7098" height="7.7098" fill="#CB6951"/>
<rect x="197.151" y="211.836" width="7.7098" height="7.7098" fill="#CB6951"/>
<rect x="197.151" y="219.545" width="7.7098" height="7.7098" fill="#CB6951"/>
<rect x="197.151" y="227.256" width="7.7098" height="7.7098" fill="#CB6951"/>
<rect x="174.756" y="182.465" width="13.5839" height="7.7098" fill="#ABA197"/>
<rect x="124.091" y="154.196" width="6.6084" height="13.9511" fill="#42282F"/>
<rect x="145.385" y="160.804" width="14.6853" height="6.97554" fill="#EAEBDB"/>
<rect x="160.07" y="190.175" width="7.34267" height="6.97554" fill="#572B31"/>
<rect x="111.608" y="139.878" width="6.97554" height="8.07694" fill="#2D253A"/>
<rect x="138.042" y="221.014" width="28.6364" height="8.07694" fill="#894D32"/>
<rect x="118.217" y="255.157" width="6.6084" height="6.97554" fill="#332736"/>
<rect x="131.067" y="234.965" width="21.2937" height="7.34267" fill="#332736"/>
<rect x="145.752" y="248.182" width="20.1923" height="7.34267" transform="rotate(90 145.752 248.182)" fill="#332736"/>
</svg>
