<svg width="320" height="80" viewBox="0 0 320 80" fill="none" xmlns="http://www.w3.org/2000/svg">
<g clip-path="url(#clip0_311_8)">
<path d="M74.75 64.813L72.6875 75.0005L71.875 76.5005L71 77.0005L70.4375 77.063L24.625 80.0005L23.375 79.7505L22.9375 79.5005C22.4375 79.1255 22.125 78.6463 22 78.063L19.625 67.188C15.8333 65.7296 12.2917 64.1463 9 62.438L5.1875 60.3755V60.438L1.875 58.3755L1.25 58.1255L0.3125 57.1255L0 55.813L1.5625 6.31298V6.18798C1.6875 4.39631 2.3125 3.04214 3.4375 2.12548L3.6875 1.87548C5.02083 0.375476 7.27083 -0.22869 10.4375 0.0629764C59.8125 5.43798 109.167 8.06298 158.5 7.93798H159.187H159.875H161.25H162.687H163.375H163.875H163.937H166.313C214.063 7.89631 261.812 5.27131 309.562 0.0629764H309.625C312.667 -0.22869 314.917 0.33381 316.375 1.75048L316.688 2.06298C317.646 2.97964 318.25 4.31298 318.5 6.06298V6.31298L320 55.813L319.688 57.188L318.813 58.1255L318.125 58.3755L315 60.3755L311.187 62.3755C307.812 64.1255 304.208 65.7296 300.375 67.188L297.938 78.063C297.813 78.6463 297.521 79.1255 297.062 79.5005L296.688 79.7505L295.438 80.0005L249.562 77.063L249.062 77.0005L248.125 76.438C247.708 76.0213 247.438 75.5421 247.313 75.0005L245.312 64.813C218.979 66.313 192.646 67.1046 166.313 67.188H163.375H162.687H161.25H159.875H159.187H158.5C130.667 67.188 102.75 66.3963 74.75 64.813ZM314.75 3.68798C313.75 2.77131 312.104 2.41714 309.813 2.62548C261.979 7.83381 214.146 10.4588 166.313 10.5005H163.937H163.875H163.375H162.687H161.25H159.875H159.187H158.5C109.083 10.6255 59.6458 8.00048 10.1875 2.62548C7.9375 2.41714 6.3125 2.77131 5.3125 3.68798C4.5625 4.31298 4.14583 5.20881 4.0625 6.37548L2.4375 55.8755L2.75 55.938L6.3125 58.1255C8.9375 59.6255 11.75 61.063 14.75 62.438L21.6875 65.313L24.4375 77.5005L60.875 75.063L70.25 74.5005L72.1875 65.1255L72.8125 62.1255L77.5 62.438C104.542 63.938 131.542 64.688 158.5 64.688H159.187H159.875H161.25H162.687H163.375H166.313C191.729 64.6046 217.125 63.8546 242.5 62.438L247.25 62.1255L247.875 65.1255L249.688 74.5005L259.25 75.063L295.562 77.5005L298.25 65.313L305.375 62.3755C308.292 61.0421 311.083 59.6255 313.75 58.1255L317.25 55.938L317.5 55.8755L316.063 6.37548C315.896 5.20881 315.458 4.31298 314.75 3.68798Z" fill="#8E3F38"/>
<path d="M314.75 3.68873L311.625 4.06373C263.208 10.6887 214.771 14.1054 166.313 14.3137H163.937H163.875H163.375H162.687H161.25H159.875H159.188H158.5C108.458 14.3554 58.4375 10.9387 8.4375 4.06373L5.3125 3.68873C6.3125 2.77206 7.9375 2.4179 10.1875 2.62623C59.6458 8.00123 109.083 10.6262 158.5 10.5012H159.188H159.875H161.25H162.687H163.375H163.875H163.937H166.313C214.146 10.4596 261.979 7.83456 309.813 2.62623C312.104 2.4179 313.75 2.77206 314.75 3.68873ZM247.875 65.1262L247.25 62.1262H247.313H248.188L262 61.2512L299.813 57.8762H300.125L312.375 56.5637L317.25 55.9387L311.625 57.2512L299.438 59.5637L299.375 59.6262C282.25 62.6262 265.083 64.4596 247.875 65.1262ZM72.8125 62.1262L72.1875 65.1262C54.9375 64.4596 37.7708 62.6262 20.6875 59.6262L20.5 59.5637L8.5625 57.2512L2.75 55.9387L7.8125 56.5637L19.8125 57.8762H20.1875L57.9375 61.2512L71.875 62.1262H72.8125Z" fill="#FF7366"/>
<path d="M72.8125 62.125H71.875L57.9375 61.25L20.1875 57.875H19.8125L7.8125 56.5625L2.75 55.9375L2.4375 55.875L4.0625 6.375C4.14583 5.20833 4.5625 4.3125 5.3125 3.6875L8.4375 4.0625C58.4375 10.9375 108.458 14.3542 158.5 14.3125H159.188H159.875H161.25H162.687H163.375H163.875H163.937H166.313C214.771 14.1042 263.208 10.6875 311.625 4.0625L314.75 3.6875C315.458 4.3125 315.896 5.20833 316.063 6.375L317.5 55.875L317.25 55.9375L312.375 56.5625L300.125 57.875H299.813L262 61.25L248.188 62.125H247.313H247.25L242.5 62.4375C217.125 63.8542 191.729 64.6042 166.313 64.6875H163.375H162.687H161.25H159.875H159.188H158.5C131.542 64.6875 104.542 63.9375 77.5 62.4375L72.8125 62.125ZM310.25 7.6875H310.375C262.333 12.8958 214.313 15.5208 166.313 15.5625H163.937H163.875H163.375H162.687H161.25H159.875H159.188H158.5C108.958 15.6875 59.375 13.0625 9.75 7.6875L9 7.5625L7.5625 51.375L8.3125 51.5H8.375L20 52.8125H20.1875L20.6875 52.875L58.3125 56.125L72.1875 57.0625H72.8125H73.0625L77.875 57.375C104.792 58.8333 131.667 59.5625 158.5 59.5625H159.188H159.875H161.25H162.687H163.375H166.313C191.604 59.4792 216.875 58.75 242.125 57.375L247 57.0625H247.25H247.313H247.875L261.688 56.125L299.312 52.875L299.813 52.8125H299.938L311.812 51.5H311.875L312.5 51.4375L311.188 7.5625L310.25 7.6875ZM163.937 18.125H166.313C213.771 18.0833 261.271 15.5208 308.813 10.4375L309.938 49.1875L299.688 50.25L299.063 50.3125L261.563 53.625L247.75 54.5H247.313H246.938H246.875L242 54.8125C216.792 56.2292 191.563 56.9792 166.313 57.0625H163.375H162.687H161.25H159.875H159.188H158.5C131.75 57.0625 104.938 56.3125 78.0625 54.8125L73.1875 54.5H73.125H72.8125H72.75H72.375L58.5 53.625L21 50.3125L20.25 50.25H20.1875L10.0625 49.1875L11.3125 10.4375C60.3958 15.6875 109.458 18.25 158.5 18.125H159.188H159.875H161.25H162.687H163.375H163.875H163.937Z" fill="#E2665B"/>
<path d="M163.937 18.125H163.875H163.375H162.687H161.25H159.875H159.187H158.5C109.458 18.25 60.3958 15.6875 11.3125 10.4375L10.0625 49.1875L20.1875 50.25H20.25L21 50.3125L58.5 53.625L72.375 54.5H72.75H72.8125H73.125H73.1875L78.0625 54.8125C104.938 56.3125 131.75 57.0625 158.5 57.0625H159.187H159.875H161.25H162.687H163.375H166.312C191.563 56.9792 216.792 56.2292 242 54.8125L246.875 54.5H246.938H247.313H247.75L261.562 53.625L299.062 50.3125L299.687 50.25L309.937 49.1875L308.812 10.4375C261.271 15.5208 213.771 18.0833 166.312 18.125H163.937ZM310.25 7.6875L311.187 7.5625L312.5 51.4375L311.875 51.5H311.812L299.937 52.8125H299.813L299.312 52.875L261.688 56.125L247.875 57.0625H247.313H247.25H247L242.125 57.375C216.875 58.75 191.604 59.4792 166.312 59.5625H163.375H162.687H161.25H159.875H159.187H158.5C131.667 59.5625 104.792 58.8333 77.875 57.375L73.0625 57.0625H72.8125H72.1875L58.3125 56.125L20.6875 52.875L20.1875 52.8125H20L8.375 51.5H8.3125L7.5625 51.375L9 7.5625L9.75 7.6875C59.375 13.0625 108.958 15.6875 158.5 15.5625H159.187H159.875H161.25H162.687H163.375H163.875H163.937H166.312C214.313 15.5208 262.333 12.8958 310.375 7.6875H310.25Z" fill="#FFF1D2"/>
<path d="M245.312 64.8125C218.979 68.3542 192.646 70.25 166.312 70.5H165.187H163.875H163.375H162.687H161.25H159.875H159.188H158.5C130.667 70.5 102.75 68.6042 74.75 64.8125C102.75 66.3958 130.667 67.1875 158.5 67.1875H159.188H159.875H161.25H162.687H163.375H166.312C192.646 67.1042 218.979 66.3125 245.312 64.8125Z" fill="black" fill-opacity="0.101961"/>
<path d="M317.25 55.9375L313.75 58.125C311.083 59.625 308.292 61.0417 305.375 62.375L298.25 65.3125C293.458 67.0625 288.229 68.7083 282.563 70.25L270.812 73.0625L259.25 75.0625L249.688 74.5L247.875 65.125C265.083 64.4583 282.25 62.625 299.375 59.625L299.438 59.5625L311.625 57.25L317.25 55.9375ZM72.1875 65.125L70.25 74.5L60.875 75.0625L49.3125 73.0625L37.4375 70.25C31.8125 68.7083 26.5625 67.0625 21.6875 65.3125L14.75 62.4375C11.75 61.0625 8.9375 59.625 6.3125 58.125L2.75 55.9375L8.5625 57.25L20.5 59.5625L20.6875 59.625C37.7708 62.625 54.9375 64.4583 72.1875 65.125Z" fill="#C6594F"/>
<path d="M298.25 65.3125L295.562 77.5L259.25 75.0625L270.812 73.0625L282.562 70.25C288.229 68.7083 293.458 67.0625 298.25 65.3125ZM60.875 75.0625L24.4375 77.5L21.6875 65.3125C26.5625 67.0625 31.8125 68.7083 37.4375 70.25L49.3125 73.0625L60.875 75.0625Z" fill="#AD4D45"/>
</g>
<defs>
<clipPath id="clip0_311_8">
<rect width="320" height="80" fill="white"/>
</clipPath>
</defs>
</svg>
