<svg width="707" height="276" viewBox="0 0 707 276" fill="none" xmlns="http://www.w3.org/2000/svg">
<g clip-path="url(#clip0_293_1688)">
<path d="M4.75526 0.964844C4.75526 0.964844 469.563 51.9817 698.867 42.9788L705.338 42.9056V80.784L688.616 87.6277L705.338 92.6415L702.843 177.731C702.843 177.731 689.24 158.554 672.168 159.029C672.168 159.029 699.842 173.851 702.687 189.149C705.533 204.447 709.274 268.309 700.66 270.359C692.046 272.408 10.3291 251.035 10.3291 251.035L0 215.353L3.15718 121.114L31.6887 112.477L1.5591 99.778L4.75526 0.964844Z" fill="#2DB9C0"/>
<path d="M0 217.878C0 217.878 237.724 218.244 249.339 220.842C260.955 223.441 275.259 232.261 285.861 231.236C296.463 230.211 306.325 211.474 322.383 211.474C338.442 211.474 467.068 210.449 473.187 209.387C479.307 208.326 496.73 189.112 500.823 182.891C504.915 176.669 514.465 164.702 525.067 164.19C535.668 163.677 610.7 161.591 610.7 161.591C610.7 161.591 527.639 166.642 516.453 174.547C503.395 183.733 491.273 216.195 472.525 216.195C453.777 216.195 345.263 213.596 333.999 221.391C322.734 229.187 322.071 235.445 322.071 235.445L504.954 242.728C504.954 242.728 543.503 238.043 550.012 238.556C556.521 239.068 563.654 241.154 567.396 242.728C571.138 244.301 630.579 238.153 630.579 238.153C630.579 238.153 619.236 228.308 596.395 215.719C596.395 215.719 630.501 227.137 642.467 235.994C654.433 244.85 694.346 254.695 697.737 247.961C701.128 241.227 703.038 175.791 672.246 159.103C672.246 159.103 703.194 168.691 703.701 197.676C703.701 197.676 708.222 240.642 706.039 257.403C703.857 274.165 703.584 275.666 694.151 275.556C684.719 275.446 10.3291 255.134 10.3291 255.134L0 217.878Z" fill="#0C5259"/>
<path d="M688.615 87.6301L665.774 80.1642L705.376 69.0752V80.7498L688.615 87.6301Z" fill="#0C5259"/>
<path d="M1.94824 154.82C1.94824 154.82 127.846 166.348 164.952 177.803C202.059 189.258 330.724 201.628 341.521 199.395C341.521 199.395 172.436 174.692 135.836 165.433C99.2362 156.174 1.94824 147.573 1.94824 147.573V154.82Z" fill="#0C5259"/>
<path d="M1.59702 158.299C1.59702 158.299 63.0256 166.826 74.6409 175.719C86.2563 184.612 84.8141 189.736 98.3003 190.065C98.3003 190.065 79.0064 194.494 72.4582 191.786C65.91 189.077 66.2608 177.622 53.1643 175.5C40.0679 173.377 0.856445 185.308 0.856445 185.308L1.55804 158.299H1.59702Z" fill="#0C5259"/>
<path d="M533.836 117.749C533.836 117.749 619.509 127.667 628.59 126.02C637.672 124.373 704.402 126.203 704.402 126.203V117.749C704.402 117.749 628.902 122.324 619.119 121.958C609.335 121.592 545.919 116.065 533.836 117.749Z" fill="#0C5259"/>
<path d="M501.759 40.5654C501.759 40.5654 487.259 61.8652 475.332 62.3775C475.332 62.3775 499.771 62.0848 508.346 40.8582L501.798 40.5654H501.759Z" fill="#0C5259"/>
<path d="M510.45 105.673C510.45 105.673 513.607 81.1523 524.131 75.7725C524.131 75.7725 513.335 101.318 510.45 105.673Z" fill="#0C5259"/>
<path d="M268.322 25.5586C268.322 25.5586 267.348 55.0196 294.359 56.1541C321.371 57.2886 332.635 51.3964 332.635 51.3964C332.635 51.3964 286.681 54.1778 281.497 44.4063C276.313 34.6348 279.002 25.5586 279.002 25.5586H268.283H268.322Z" fill="#0C5259"/>
<path d="M187.328 18.7129C187.328 18.7129 163.785 74.5972 161.524 80.1235C161.524 80.1235 191.264 39.0611 194.382 19.335L187.328 18.7129Z" fill="#0C5259"/>
<path d="M161.521 80.125C161.521 80.125 131.82 104.682 123.791 106.365C123.791 106.365 159.689 93.5929 161.521 80.125Z" fill="#0C5259"/>
<path d="M14.6939 148.782C14.6939 148.782 9.35398 130.849 16.331 125.396C23.3079 119.943 70.003 101.791 70.003 101.791L3.15655 121.114L1.94824 147.574L14.6939 148.782Z" fill="#FFEBCC"/>
<path d="M34.7694 114.563C34.7694 114.563 11.8896 107.061 11.4608 78.6613C11.0321 50.2616 9.55094 20.6543 18.6717 19.6662C27.7924 18.678 445.866 37.7453 445.866 37.7453C445.905 37.7453 99.5501 15.3843 4.75671 0.964844L1.56055 99.778L34.7694 114.527V114.563Z" fill="#FFEBCC"/>
<path d="M31.6893 112.479L70.0042 101.793L2.69 82.5059L1.59863 104.464L31.6893 112.479Z" fill="#0C5259"/>
</g>
<defs>
<clipPath id="clip0_293_1688">
<rect width="706.585" height="274.481" fill="white" transform="translate(0 0.964844)"/>
</clipPath>
</defs>
</svg>
