<svg width="1105" height="294" viewBox="0 0 1105 294" fill="none" xmlns="http://www.w3.org/2000/svg">
<g clip-path="url(#clip0_293_1703)">
<path d="M8.18668 0C8.18668 0 733.96 54.6051 1092.01 44.9752L1102.11 44.9039V85.4565L1075.96 92.7681L1102.11 98.1537L1098.18 189.245C1098.18 189.245 1076.93 168.737 1050.32 169.201C1050.32 169.201 1093.55 185.072 1097.93 201.443C1102.32 217.814 1108.21 286.186 1094.76 288.398C1081.31 290.609 16.8536 267.676 16.8536 267.676L0.732422 229.477L3.62139 143.379L29.7291 134.961L2.19474 127.15L8.18668 0Z" fill="#9EC35C"/>
<path d="M0.732422 232.189C0.732422 232.189 371.947 232.582 390.066 235.364C408.184 238.146 430.547 247.597 447.061 246.492C463.574 245.386 479.018 225.341 504.055 225.341C529.093 225.341 729.966 224.236 739.56 223.13C749.154 222.024 776.332 201.445 782.716 194.74C789.1 188.035 804.045 175.266 820.558 174.695C837.072 174.125 954.307 171.913 954.307 171.913C954.307 171.913 824.588 177.335 807.112 185.752C786.746 195.596 767.808 230.335 738.526 230.335C709.243 230.335 539.793 227.553 522.209 235.899C504.626 244.245 503.556 250.914 503.556 250.914L789.136 258.689C789.136 258.689 849.341 253.696 859.47 254.231C869.599 254.766 880.798 257.013 886.648 258.689C892.497 260.366 985.336 253.768 985.336 253.768C985.336 253.768 967.646 243.246 931.944 229.728C931.944 229.728 985.229 241.962 1003.88 251.414C1022.54 260.865 1084.88 271.458 1090.2 264.218C1095.51 256.977 1098.43 186.965 1050.36 169.096C1050.36 169.096 1098.65 179.368 1099.47 210.362C1099.47 210.362 1106.53 256.335 1103.11 274.276C1099.68 292.216 1099.25 293.821 1084.52 293.714C1069.79 293.607 16.8536 272.064 16.8536 272.064L0.732422 232.189Z" fill="#0C5415"/>
<path d="M1075.97 92.7348L1040.26 84.7812L1102.11 72.9043V85.4232L1075.97 92.7348Z" fill="#0C5415"/>
<path d="M29.7297 134.998L64.7897 124.548L3.19397 105.787L2.19531 127.187L29.7297 134.998Z" fill="#0C5415"/>
<path d="M2.51562 176.265C2.51562 176.265 117.718 187.5 151.672 198.663C185.626 209.827 303.361 221.882 313.24 219.707C313.24 219.707 158.52 195.632 125.029 186.608C91.5387 177.585 2.51562 169.203 2.51562 169.203V176.265Z" fill="#0C5415"/>
<path d="M2.19328 179.652C2.19328 179.652 58.4034 187.962 69.0319 196.629C79.6605 205.296 78.3408 210.289 90.6814 210.61C90.6814 210.61 73.0266 214.926 67.0346 212.287C61.0427 209.647 61.3637 198.484 49.3798 196.415C37.3959 194.346 1.51562 205.938 1.51562 205.938L2.15762 179.616L2.19328 179.652Z" fill="#0C5415"/>
<path d="M834.289 125.011C834.289 125.011 968.073 135.604 982.197 133.857C996.321 132.109 1100.57 134.071 1100.57 134.071V125.047C1100.57 125.047 982.697 129.969 967.431 129.577C952.166 129.184 853.157 123.299 834.289 125.047V125.011Z" fill="#0C5415"/>
<path d="M784.18 42.4068C784.18 42.4068 761.567 65.2332 742.878 65.7325C742.878 65.7325 781.005 65.4115 794.416 42.6921L784.144 42.3711L784.18 42.4068Z" fill="#0C5415"/>
<path d="M797.805 112.066C797.805 112.066 802.727 85.816 819.169 80.0381C819.169 80.0381 802.299 107.358 797.805 112.066Z" fill="#0C5415"/>
<path d="M419.704 26.3238C419.704 26.3238 418.171 57.8528 460.328 59.0654C502.486 60.2781 520.141 53.9651 520.141 53.9651C520.141 53.9651 448.38 56.9611 440.319 46.4752C432.259 35.9893 436.432 26.2881 436.432 26.2881H419.704V26.3238Z" fill="#0C5415"/>
<path d="M293.23 19.0122C293.23 19.0122 256.458 78.8246 252.963 84.7452C252.963 84.7452 299.436 40.7687 304.251 19.6542L293.23 18.9766V19.0122Z" fill="#0C5415"/>
<path d="M252.964 84.7432C252.964 84.7432 206.598 111.029 194.079 112.813C194.079 112.813 250.147 99.1523 252.964 84.7432Z" fill="#0C5415"/>
<path d="M14.1785 170.342C14.1785 170.342 9.29222 152.866 15.6765 147.552C22.0608 142.237 64.789 124.547 64.789 124.547L3.62128 143.414L2.51562 169.201L14.1785 170.378V170.342Z" fill="#FFEBCC"/>
<path d="M55.0185 121.587C55.0185 121.587 19.2808 113.562 18.6388 83.1743C17.9968 52.7866 15.6785 21.1149 29.9094 20.0449C44.1402 18.9749 696.941 39.4117 696.941 39.4117C696.941 39.4117 156.168 15.4796 8.15293 0.0361328L3.19531 105.787L55.0185 121.587Z" fill="#FFEBCC"/>
</g>
<defs>
<clipPath id="clip0_293_1703">
<rect width="1103.3" height="293.819" fill="white" transform="translate(0.732422)"/>
</clipPath>
</defs>
</svg>
